<svg width="100" height="100" viewBox="0 0 24 24" fill="none" xmlns="http://www.w3.org/2000/svg">
<path d="M14 22v-4a2 2 0 0 0-2-2H4a2 2 0 0 0-2 2v4" stroke="#facc15" stroke-width="2" stroke-linecap="round" stroke-linejoin="round"/>
<path d="m18 10 4 2v8a2 2_0 0 1-2 2H4a2 2 0 0 1-2-2v-8l4-2" stroke="#facc15" stroke-width="2" stroke-linecap="round" stroke-linejoin="round"/>
<path d="M18 5v.01" stroke="#facc15" stroke-width="2" stroke-linecap="round" stroke-linejoin="round"/>
<path d="M6 12v-2a3 3 0 0 1 3-3h4a3 3 0 0 1 3 3v2" stroke="#facc15" stroke-width="2" stroke-linecap="round" stroke-linejoin="round"/>
<path d="M12 22V10" stroke="#facc15" stroke-width="2" stroke-linecap="round" stroke-linejoin="round"/>
<path d="M6 18H2" stroke="#facc15" stroke-width="2" stroke-linecap="round" stroke-linejoin="round"/>
<path d="M22 18h-4" stroke="#facc15" stroke-width="2" stroke-linecap="round" stroke-linejoin="round"/>
<path d="M10 3.34A6.02 6.02 0 0 1 12 3a6 6 0 0 1 6 6" stroke="#facc15" stroke-width="2" stroke-linecap="round" stroke-linejoin="round"/>
</svg>
